<svg xmlns="http://www.w3.org/2000/svg" style="display:none">
    <symbol id="facebook" viewBox="0 0 112.196 112.196">
        <title>
            facebook
        </title>
        <circle class="social-svg" cx="56.098" cy="56.098" r="56.098"/>
        <path style="fill:#fff" d="M70.201,58.294h-10.01v36.672H45.025V58.294h-7.213V45.406h7.213v-8.34 c0-5.964,2.833-15.303,15.301-15.303L71.56,21.81v12.51h-8.151c-1.337,0-3.217,0.668-3.217,3.513v7.585h11.334L70.201,58.294z"/>
    </symbol>
    <symbol id="twitter" viewBox="0 0 112.197 112.197">
        <title>
            twitter
        </title>
        <circle class="social-svg" cx="56.099" cy="56.098" r="56.098"/>
        <g>
            <path style="fill:#f1f2f2" d="M90.461,40.316c-2.404,1.066-4.99,1.787-7.702,2.109c2.769-1.659,4.894-4.284,5.897-7.417 c-2.591,1.537-5.462,2.652-8.515,3.253c-2.446-2.605-5.931-4.233-9.79-4.233c-7.404,0-13.409,6.005-13.409,13.409 c0,1.051,0.119,2.074,0.349,3.056c-11.144-0.559-21.025-5.897-27.639-14.012c-1.154,1.98-1.816,4.285-1.816,6.742 c0,4.651,2.369,8.757,5.965,11.161c-2.197-0.069-4.266-0.672-6.073-1.679c-0.001,0.057-0.001,0.114-0.001,0.17 c0,6.497,4.624,11.916,10.757,13.147c-1.124,0.308-2.311,0.471-3.532,0.471c-0.866,0-1.705-0.083-2.523-0.239 c1.706,5.326,6.657,9.203,12.526,9.312c-4.59,3.597-10.371,5.74-16.655,5.74c-1.08,0-2.15-0.063-3.197-0.188 c5.931,3.806,12.981,6.025,20.553,6.025c24.664,0,38.152-20.432,38.152-38.153c0-0.581-0.013-1.16-0.039-1.734 C86.391,45.366,88.664,43.005,90.461,40.316L90.461,40.316z"/>
        </g>
    </symbol>
    <symbol id="pinterest" viewBox="0 0 314.652 314.652">
        <title>
            pinterest
        </title>
        <path d="M157.326,0C70.576,0,0,70.576,0,157.326s70.576,157.326,157.326,157.326s157.326-70.576,157.326-157.326 S244.076,0,157.326,0z M157.326,296.652C80.502,296.652,18,234.15,18,157.326S80.502,18,157.326,18s139.326,62.502,139.326,139.326 S234.15,296.652,157.326,296.652z"/>
        <path d="M200.481,76.642c-34.44-26.361-81.819-22.517-105.614,8.57c-18.037,23.565-17.872,57.435,0.411,84.281 c2.798,4.106,8.395,5.171,12.505,2.372c4.108-2.798,5.17-8.396,2.372-12.505c-13.904-20.417-14.305-45.818-0.995-63.207 c17.764-23.207,53.822-25.547,80.38-5.219c26.559,20.329,33.715,55.748,15.952,78.954c-13.722,17.928-38.68,23.803-62.209,15.207 l11.668-55.423c1.024-4.864-2.089-9.638-6.952-10.661c-4.874-1.026-9.639,2.089-10.661,6.952l-24,114 c-1.024,4.864,2.089,9.638,6.952,10.661c0.626,0.132,1.249,0.195,1.863,0.195c4.166,0,7.906-2.909,8.798-7.147l8.593-40.816 c8.41,2.787,16.954,4.153,25.298,4.153c21.622,0,41.892-9.129,54.943-26.181C243.58,149.741,234.921,103.003,200.481,76.642z"/>
    </symbol>
    <symbol id="google-plus" viewBox="0 0 97.75 97.75">
        <title>
            google-plus
        </title>
        <path d="M50.729,33.67c0-6.775-4.039-17.311-11.826-17.311c-2.448,0-5.071,1.222-6.577,3.105 c-1.598,1.979-2.062,4.511-2.062,6.965c0,6.3,3.658,16.741,11.736,16.741c2.345,0,4.872-1.123,6.382-2.63 C50.541,38.369,50.729,35.365,50.729,33.67z"/>
        <path d="M45.657,58.414c-0.748-0.094-1.218-0.094-2.156-0.094c-0.847,0-5.918,0.185-9.859,1.511 c-2.064,0.748-8.071,3.008-8.071,9.687c0,6.682,6.478,11.485,16.522,11.485c9.015,0,13.804-4.338,13.804-10.163 C55.896,66.027,52.798,63.496,45.657,58.414z"/>
        <path d="M48.875,0C21.882,0,0,21.882,0,48.875S21.882,97.75,48.875,97.75S97.75,75.868,97.75,48.875S75.868,0,48.875,0z M37.489,84.945c-13.616,0-20.184-6.488-20.184-13.455c0-3.385,1.687-8.18,7.227-11.475c5.818-3.576,13.709-4.043,17.936-4.334 c-1.319-1.692-2.816-3.479-2.816-6.395c0-1.597,0.47-2.539,0.934-3.669c-1.034,0.096-2.062,0.188-3.002,0.188 c-9.948,0-15.581-7.438-15.581-14.775c0-4.322,1.969-9.124,6.005-12.605c5.354-4.422,12.67-5.622,17.744-5.622H64.25l-6.105,3.836 h-5.816c2.158,1.786,6.658,5.549,6.658,12.703c0,6.957-3.938,10.259-7.879,13.36c-1.223,1.221-2.632,2.538-2.632,4.611 c0,2.065,1.41,3.193,2.44,4.047l3.383,2.628c4.132,3.479,7.888,6.679,7.886,13.177C62.184,76.012,53.635,84.945,37.489,84.945z M78.005,47.725v9.464h-4.646v-9.464h-9.393v-4.697h9.393v-9.406h4.646v9.406h9.438v4.697H78.005z"/>
    </symbol>
</svg>
